<svg width="32" height="32" viewBox="0 0 32 32" fill="none" xmlns="http://www.w3.org/2000/svg">
  <rect width="32" height="32" rx="6" fill="#00A86B"/>
  <path d="M16 26C16 26 13 20 13 16C13 12 15 8 16 8C17 8 19 12 19 16C19 20 16 26 16 26Z" fill="#2D5016"/>
  <path d="M16 8C16 8 11 10 8 12C8 12 10 14 13 14C16 14 16 8 16 8Z" fill="#22C55E"/>
  <path d="M16 8C16 8 21 10 24 12C24 12 22 14 19 14C16 14 16 8 16 8Z" fill="#10B981"/>
  <path d="M16 10C16 10 14 14 12 16C12 16 13 17 15 16C17 15 16 10 16 10Z" fill="#34D399"/>
  <path d="M16 10C16 10 18 14 20 16C20 16 19 17 17 16C15 15 16 10 16 10Z" fill="#059669"/>
</svg>
